<svg width="81" height="81" viewBox="0 0 81 81" fill="none" xmlns="http://www.w3.org/2000/svg">
<path fill-rule="evenodd" clip-rule="evenodd" d="M38.9466 75.4348C39.0486 75.4939 39.1287 75.5394 39.1855 75.5714L39.2797 75.6239C40.0319 76.0369 40.9649 76.0337 41.7178 75.6253L41.8145 75.5714C41.8713 75.5394 41.9514 75.4939 42.0534 75.4348C42.2572 75.3167 42.5485 75.1444 42.9148 74.9189C43.6471 74.468 44.6808 73.8031 45.9156 72.9308C48.3809 71.1892 51.6704 68.6051 54.9671 65.2298C61.5285 58.5118 68.3438 48.4183 68.3438 35.4375C68.3438 20.0598 55.8777 7.59375 40.5 7.59375C25.1223 7.59375 12.6562 20.0598 12.6562 35.4375C12.6562 48.4183 19.4715 58.5118 26.0329 65.2298C29.3296 68.6051 32.6191 71.1892 35.0844 72.9308C36.3192 73.8031 37.3529 74.468 38.0852 74.9189C38.4515 75.1444 38.7428 75.3167 38.9466 75.4348ZM40.5 45.5625C46.0919 45.5625 50.625 41.0294 50.625 35.4375C50.625 29.8456 46.0919 25.3125 40.5 25.3125C34.9081 25.3125 30.375 29.8456 30.375 35.4375C30.375 41.0294 34.9081 45.5625 40.5 45.5625Z" fill="#0192FF"/>
</svg>
