<svg width="30" height="22" viewBox="0 0 30 22" fill="none" xmlns="http://www.w3.org/2000/svg">
<path d="M24.3637 7.67097L24.412 7.62272L24.5085 7.52623C24.605 7.42974 24.7015 7.33325 24.8462 7.23675C24.9427 7.14026 25.0392 7.04377 25.1357 6.94728L25.9076 6.2236C26.1006 6.03061 26.1971 5.74114 26.1006 5.45167C26.0523 5.35518 26.0041 5.25868 25.9558 5.16219C25.7146 4.92096 25.3286 4.87272 25.0392 5.01746C24.9909 5.0657 24.9427 5.0657 24.8944 5.11395L24.2672 5.69289C22.3374 7.42974 20.4558 9.11833 18.526 10.8552C18.0918 11.2411 17.6576 11.6271 17.2234 12.0131C16.5479 12.592 15.7278 12.8815 14.9076 12.8815C14.0874 12.8815 13.3155 12.6403 12.5918 12.0131C12.1576 11.6271 11.7234 11.2411 11.2892 10.8552C9.35935 9.11833 7.47777 7.42974 5.54795 5.69289L4.92075 5.11395C4.87251 5.0657 4.82426 5.0657 4.77602 5.01746C4.48654 4.82447 4.10058 4.92096 3.85935 5.16219C3.76286 5.25868 3.71461 5.35518 3.71461 5.45167C3.61812 5.69289 3.71461 6.03061 3.90759 6.2236L4.67952 6.94728L4.969 7.23675C5.06549 7.33325 5.16198 7.42974 5.30672 7.52623L5.40321 7.62272L5.45145 7.67097C6.36812 8.53939 7.33303 9.35956 8.2497 10.1797C8.58742 10.4692 8.92514 10.8069 9.3111 11.1446C9.26286 11.1929 9.21461 11.2411 9.16637 11.2894C7.67075 12.785 6.17514 14.2324 4.67952 15.728C4.63128 15.7762 4.53479 15.8727 4.48654 15.921C4.29356 16.1622 4.29356 16.4999 4.4383 16.7411C4.63128 16.9824 4.92075 17.1271 5.21023 16.9824C5.35496 16.9341 5.4997 16.8376 5.59619 16.6929C7.0918 15.2455 8.58742 13.7499 10.083 12.3025C10.1795 12.2061 10.2278 12.1578 10.3243 12.0613C10.7585 12.4473 11.1444 12.785 11.5304 13.1227C12.3023 13.8464 13.2672 14.2806 14.3286 14.3771C14.5216 14.3771 14.7146 14.4254 14.9076 14.4254C15.1006 14.4254 15.2936 14.4254 15.4865 14.3771C16.5479 14.2806 17.4646 13.7982 18.2848 13.1227C18.6708 12.785 19.0567 12.399 19.4909 12.0613C19.5874 12.1578 19.6839 12.2061 19.7322 12.3025C21.2278 13.7499 22.7234 15.2455 24.219 16.6929C24.3155 16.7894 24.4602 16.9341 24.605 16.9824C24.8944 17.0789 25.1839 16.9824 25.3769 16.7411C25.5699 16.4999 25.5216 16.1622 25.3286 15.921C25.2804 15.8727 25.1839 15.7762 25.1357 15.728C23.6401 14.2324 22.1444 12.785 20.6488 11.2894C20.6006 11.2411 20.5523 11.1929 20.5041 11.1446C20.8418 10.8069 21.1795 10.5175 21.5655 10.1797C22.4822 9.35956 23.4471 8.53939 24.3637 7.67097Z" fill="#0192FF"/>
<path d="M25.4254 22H4.39035C1.97807 22 0 20.0219 0 17.6096V4.39035C0 1.97807 1.97807 0 4.39035 0H25.4737C27.886 0 29.864 1.97807 29.864 4.39035V17.6096C29.8158 20.0219 27.886 22 25.4254 22ZM4.39035 1.64035C2.84649 1.64035 1.64035 2.89474 1.64035 4.39035V17.6096C1.64035 19.1535 2.89474 20.3596 4.39035 20.3596H25.4737C27.0175 20.3596 28.2237 19.1053 28.2237 17.6096V4.39035C28.2237 2.84649 26.9693 1.64035 25.4737 1.64035H4.39035Z" fill="#0192FF"/>
</svg>
