<svg width="733" height="165" viewBox="0 0 733 165" fill="none" xmlns="http://www.w3.org/2000/svg">
<path fill-rule="evenodd" clip-rule="evenodd" d="M-11 90.4301C-11 90.4301 27.835 101.08 69.0547 96.2028C106.611 91.7597 157.393 66.5655 166.119 61.5299C166.119 61.5299 193.523 47.4987 227.488 32.1634C247.997 22.9029 270.899 12.4743 291.604 6.34095C318.672 -1.67761 341.01 1.99192 356.811 5.09867C368.845 7.4649 383.348 11.3936 397.525 17.9065C397.525 17.9065 418.338 27.1895 441.993 43.0971C454.898 51.7758 467.1 64.1064 480.327 74.6169C480.327 74.6169 501.631 92.7576 526.502 103.331C529.459 104.588 532.466 105.738 535.494 106.738C538.999 107.895 558.446 114.333 582.321 114.423C622.589 114.575 675.71 107.562 688.062 106.073C702.356 104.35 732.073 115.085 730.97 127.371C729.796 140.449 669.199 155.286 645.018 158.721C642.304 159.107 605.507 163.573 572.999 163.499C549.95 163.447 529.066 159.179 523.978 158.168C506.509 154.7 478.198 145.393 450.716 120.421C450.716 120.421 413.999 83.5783 369.559 65.8921C369.559 65.8921 332.129 44.9817 288.951 62.6204C288.951 62.6204 256.223 75.39 205.601 99.7005C205.601 99.7005 141.753 135.491 86.059 146.05C86.059 146.05 23.6004 157.685 -11 145.505V90.4301Z" fill="#D5EDFE" fill-opacity="0.64" stroke="#0192FF" stroke-opacity="0.6" stroke-width="3"/>
</svg>
