<svg width="27" height="27" viewBox="0 0 27 27" fill="none" xmlns="http://www.w3.org/2000/svg">
<g clip-path="url(#clip0_763_182)">
<path fill-rule="evenodd" clip-rule="evenodd" d="M13.4569 0.409058C15.8908 0.436831 18.0895 1.035 20.0532 2.20357C21.9934 3.34881 23.6074 4.97267 24.7408 6.91985C25.9022 8.89533 26.4968 11.1074 26.5245 13.5561C26.4555 16.9065 25.3988 19.768 23.3543 22.1408C21.3098 24.5135 18.6912 25.9814 15.9806 26.5441V17.1507H18.5433L19.1228 13.4593H15.2423V11.0415C15.2207 10.5403 15.3793 10.0479 15.6892 9.65338C15.9995 9.25778 16.546 9.04985 17.3286 9.0296H19.672V5.79602C19.6384 5.7852 19.3193 5.74242 18.7148 5.66768C18.0293 5.58747 17.3399 5.54463 16.6498 5.53935C15.0877 5.54656 13.8523 5.98719 12.9435 6.86126C12.0348 7.73508 11.5706 8.99932 11.5509 10.654V13.4593H8.59778V17.1507H11.5509V26.5441C8.22258 25.9814 5.60405 24.5135 3.55953 22.1408C1.51502 19.768 0.45833 16.9065 0.389343 13.5561C0.416944 11.1073 1.0115 8.89522 2.17301 6.91985C3.30642 4.97267 4.92041 3.34881 6.86066 2.20357C8.82425 1.03523 11.023 0.437056 13.4569 0.409058Z" fill="black"/>
</g>
<defs>
<clipPath id="clip0_763_182">
<rect width="27" height="27" fill="white"/>
</clipPath>
</defs>
</svg>
