<svg width="14" height="14" viewBox="0 0 14 14" fill="none" xmlns="http://www.w3.org/2000/svg">
<g clip-path="url(#clip0_763_231)">
<path d="M13.9862 4.11604C13.9534 3.37216 13.8332 2.86076 13.6608 2.41762C13.4831 1.94723 13.2096 1.5261 12.8513 1.17601C12.5012 0.820473 12.0773 0.544204 11.6123 0.369213C11.1666 0.196892 10.6579 0.0765988 9.91401 0.0438013C9.16458 0.00822609 8.92667 0 7.0259 0C5.12514 0 4.88723 0.00822609 4.14057 0.0410236C3.3967 0.0738212 2.88529 0.194221 2.44226 0.366435C1.97177 0.544204 1.55064 0.817695 1.20055 1.17601C0.845009 1.5261 0.568847 1.95001 0.393749 2.41495C0.221428 2.86076 0.101135 3.36939 0.0683374 4.11326C0.0327622 4.86269 0.0245361 5.10061 0.0245361 7.00137C0.0245361 8.90213 0.0327622 9.14004 0.0655598 9.8867C0.0983573 10.6306 0.218757 11.142 0.391078 11.5851C0.568847 12.0555 0.845009 12.4766 1.20055 12.8267C1.55064 13.1823 1.97455 13.4585 2.43948 13.6335C2.88529 13.8058 3.39392 13.9261 4.1379 13.9589C4.88445 13.9918 5.12247 14 7.02323 14C8.92399 14 9.16191 13.9918 9.90856 13.9589C10.6524 13.9261 11.1638 13.8058 11.6069 13.6335C12.5477 13.2698 13.2916 12.5259 13.6554 11.5851C13.8276 11.1393 13.948 10.6306 13.9808 9.8867C14.0136 9.14004 14.0218 8.90213 14.0218 7.00137C14.0218 5.10061 14.019 4.86269 13.9862 4.11604ZM12.7255 9.832C12.6954 10.5157 12.5805 10.8849 12.4848 11.1311C12.2496 11.741 11.7655 12.225 11.1556 12.4603C10.9095 12.556 10.5376 12.6709 9.85653 12.7009C9.11811 12.7338 8.89665 12.7419 7.02868 12.7419C5.16072 12.7419 4.93648 12.7338 4.20072 12.7009C3.51699 12.6709 3.14778 12.556 2.90164 12.4603C2.59813 12.3481 2.32186 12.1703 2.09762 11.9379C1.86515 11.7109 1.68738 11.4374 1.57521 11.1339C1.47949 10.8877 1.36464 10.5157 1.33462 9.83478C1.30172 9.09635 1.2936 8.87478 1.2936 7.00682C1.2936 5.13885 1.30172 4.91461 1.33462 4.17896C1.36464 3.49524 1.47949 3.12602 1.57521 2.87988C1.68738 2.57626 1.86515 2.3001 2.1004 2.07575C2.32731 1.84329 2.6008 1.66552 2.90442 1.55345C3.15056 1.45773 3.52255 1.34288 4.2035 1.31276C4.94192 1.27996 5.16349 1.27173 7.03135 1.27173C8.90209 1.27173 9.12356 1.27996 9.85931 1.31276C10.543 1.34288 10.9123 1.45773 11.1584 1.55345C11.4619 1.66552 11.7382 1.84329 11.9624 2.07575C12.1949 2.30277 12.3727 2.57626 12.4848 2.87988C12.5805 3.12602 12.6954 3.49791 12.7255 4.17896C12.7583 4.91739 12.7665 5.13885 12.7665 7.00682C12.7665 8.87478 12.7583 9.09357 12.7255 9.832Z" fill="black"/>
<path d="M7.02597 3.40497C5.04049 3.40497 3.42957 5.01579 3.42957 7.00137C3.42957 8.98696 5.04049 10.5978 7.02597 10.5978C9.01156 10.5978 10.6224 8.98696 10.6224 7.00137C10.6224 5.01579 9.01156 3.40497 7.02597 3.40497ZM7.02597 9.33427C5.73789 9.33427 4.69307 8.28956 4.69307 7.00137C4.69307 5.71319 5.73789 4.66847 7.02597 4.66847C8.31416 4.66847 9.35887 5.71319 9.35887 7.00137C9.35887 8.28956 8.31416 9.33427 7.02597 9.33427Z" fill="black"/>
<path d="M11.6042 3.26275C11.6042 3.72641 11.2283 4.10235 10.7645 4.10235C10.3009 4.10235 9.92493 3.72641 9.92493 3.26275C9.92493 2.79899 10.3009 2.42316 10.7645 2.42316C11.2283 2.42316 11.6042 2.79899 11.6042 3.26275Z" fill="black"/>
</g>
<defs>
<clipPath id="clip0_763_231">
<rect width="14" height="14" fill="white"/>
</clipPath>
</defs>
</svg>
