<svg width="28" height="28" viewBox="0 0 28 28" fill="none" xmlns="http://www.w3.org/2000/svg">
<g clip-path="url(#clip0_763_111)">
<path d="M20.4248 16.6915L20.4143 16.779C17.8488 15.5004 17.5805 15.33 17.2492 15.827C17.0193 16.1712 16.3497 16.9517 16.1478 17.1827C15.9437 17.4102 15.7407 17.4277 15.3942 17.2702C15.0442 17.0952 13.9207 16.7277 12.5907 15.5377C11.5547 14.6102 10.8593 13.4727 10.654 13.1227C10.3122 12.5324 11.0273 12.4484 11.6783 11.2164C11.795 10.9714 11.7355 10.7789 11.6492 10.605C11.5617 10.43 10.8652 8.71503 10.5735 8.03137C10.2935 7.35003 10.0053 7.43637 9.7895 7.43637C9.1175 7.37803 8.62633 7.38737 8.1935 7.8377C6.3105 9.90737 6.78533 12.0424 8.3965 14.3127C11.5628 18.4567 13.2498 19.2197 16.3345 20.279C17.1675 20.5439 17.927 20.5065 18.5278 20.4202C19.1975 20.314 20.5893 19.579 20.8798 18.7565C21.1773 17.934 21.1773 17.2515 21.0898 17.094C21.0035 16.9365 20.7748 16.849 20.4248 16.6915Z" fill="black"/>
<path d="M23.94 4.02373C14.9695 -4.64811 0.123667 1.64139 0.117833 13.8751C0.117833 16.3204 0.758333 18.7051 1.97867 20.8109L0 27.9999L7.39083 26.0726C16.6133 31.0542 27.9953 24.4392 28 13.8821C28 10.1767 26.5533 6.68956 23.9225 4.06923L23.94 4.02373ZM25.669 13.8436C25.662 22.7487 15.8865 28.3102 8.155 23.7649L7.735 23.5152L3.36 24.6527L4.5325 20.4002L4.25367 19.9627C-0.557667 12.3036 4.97 2.29356 14.084 2.29356C17.1803 2.29356 20.0865 3.50106 22.2752 5.68856C24.4627 7.8574 25.669 10.7636 25.669 13.8436Z" fill="black"/>
</g>
<defs>
<clipPath id="clip0_763_111">
<rect width="28" height="28" fill="white"/>
</clipPath>
</defs>
</svg>
