<svg preserveAspectRatio="none" width="100%" height="100%" overflow="visible" style="display: block;" viewBox="0 0 16.6667 16.6668" fill="none" xmlns="http://www.w3.org/2000/svg">
<g id="Group 5">
<path id="Vector" d="M16.0374 6.88438L9.23929 6.88406C8.9391 6.88406 8.69578 7.12735 8.69578 7.42754V9.59925C8.69578 9.89938 8.9391 10.1427 9.23926 10.1427H13.0676C12.6484 11.2307 11.8659 12.1417 10.8677 12.7207L12.5001 15.5465C15.1186 14.032 16.6667 11.3749 16.6667 8.40033C16.6667 7.97679 16.6355 7.67403 16.5731 7.33311C16.5256 7.07409 16.3008 6.88438 16.0374 6.88438Z" fill="var(--fill-0, #167EE6)"/>
<path id="Vector_2" d="M8.33314 13.4056C6.45965 13.4056 4.82411 12.382 3.94569 10.8673L1.11999 12.496C2.55797 14.9882 5.25177 16.6665 8.33314 16.6665C9.84476 16.6665 11.2711 16.2595 12.4998 15.5502V15.5463L10.8674 12.7205C10.1207 13.1536 9.25667 13.4056 8.33314 13.4056Z" fill="var(--fill-0, #12B347)"/>
<path id="Vector_3" d="M12.4999 15.5504V15.5465L10.8676 12.7207C10.1209 13.1537 9.25689 13.4058 8.3333 13.4058V16.6667C9.84491 16.6667 11.2713 16.2597 12.4999 15.5504Z" fill="var(--fill-0, #0F993E)"/>
<path id="Vector_4" d="M3.26086 8.33315C3.26086 7.40969 3.51287 6.54573 3.94585 5.79908L1.12014 4.17038C0.406964 5.39521 0 6.81766 0 8.33315C0 9.84864 0.406964 11.2711 1.12014 12.4959L3.94585 10.8672C3.51287 10.1206 3.26086 9.25662 3.26086 8.33315Z" fill="var(--fill-0, #FFD500)"/>
<path id="Vector_5" d="M8.33314 3.26086C9.55485 3.26086 10.677 3.69497 11.5536 4.41707C11.7698 4.59519 12.0841 4.58234 12.2822 4.38426L13.8209 2.84553C14.0456 2.62079 14.0296 2.25292 13.7896 2.04465C12.321 0.770602 10.4102 0 8.33314 0C5.25177 0 2.55797 1.67828 1.11999 4.17052L3.94569 5.79923C4.82411 4.28449 6.45965 3.26086 8.33314 3.26086Z" fill="var(--fill-0, #FF4B26)"/>
<path id="Vector_6" d="M11.5537 4.41707C11.77 4.59519 12.0843 4.58234 12.2823 4.38426L13.8211 2.84553C14.0458 2.62079 14.0298 2.25292 13.7897 2.04465C12.3211 0.77057 10.4103 0 8.3333 0V3.26086C9.55497 3.26086 10.6772 3.69497 11.5537 4.41707Z" fill="var(--fill-0, #D93F21)"/>
</g>
</svg>
